<?xml version="1.0" encoding="utf-8"?>
<!-- Generator: Adobe Illustrator 18.0.0, SVG Export Plug-In . SVG Version: 6.00 Build 0)  -->
<!DOCTYPE svg PUBLIC "-//W3C//DTD SVG 1.1//EN" "http://www.w3.org/Graphics/SVG/1.1/DTD/svg11.dtd">
<svg version="1.1" id="Non_Editable_Symbol_Art" xmlns="http://www.w3.org/2000/svg" xmlns:xlink="http://www.w3.org/1999/xlink"
	 x="0px" y="0px" viewBox="0 0 1190.6 841.9" enable-background="new 0 0 1190.6 841.9" xml:space="preserve">
<symbol  id="Portrait_Logo_Light_Background_7C_2" viewBox="-94 -107.1 188 214.2">
	<path id="Wordmark_2_" fill="#FFFFFF" d="M-3.5-66.2c7.7,0,14.6-3.4,19.4-8.8l1.4,1.2c-5,5.7-12.5,9.4-20.7,9.4
		c-8.3,0-15.7-3.6-20.7-9.4l1.4-1.2C-18.2-69.6-11.3-66.2-3.5-66.2z M19.2-71.4l3.4,11.7c0.1,0.4,0.2,0.8-0.4,1.3l-0.4,0.3
		c-0.5,0.4-0.9,0.3-1.3,0l-10.2-6.6l2.2-1.2l7.3,4.8l-1.2-4l-1,0.7l-1.9-1.3l2.3-1.7l-0.7-2.2L19.2-71.4z M-22.9-66.2
		c-0.6-0.5-1.4-0.8-2.1-0.7c-0.8,0.1-1.4,0.4-2.1,1.4l-4.1,5L-33-62l4.4-5.4c0.9-1.1,2-1.7,3.2-1.9c1.4-0.1,2.6,0.3,3.9,1.3
		c1.2,1,1.9,2.1,2.1,3.5c0.1,1.2-0.3,2.4-1.2,3.5l-4.4,5.5l-1.8-1.5l4.1-5c0.8-1,1-1.6,1-2.4C-21.9-65-22.3-65.7-22.9-66.2z
		 M29.9-59.3c-8.5,8.7-20.3,14-33.4,14s-24.9-5.4-33.4-14.1l1.3-1.3c8.1,8.4,19.5,13.5,32.1,13.5s24-5.2,32.1-13.5L29.9-59.3z
		 M-7.9-50l-7.2-1.5c-0.5-0.1-0.8-0.5-0.7-1l1.5-7.4c0.5-2.5,2.3-3.1,4.4-2.7l4.4,0.9L-6-59.5l-4.2-0.9c-1.1-0.2-1.6,0-1.8,1.2
		l-0.2,1.1l5.3,1.1l-0.4,2.1l-5.3-1.1l-0.5,2.6l5.7,1.2L-7.9-50z M6.3-53.4l4.2-1.1l0.5,2.1l-4.3,1.1c-2,0.5-3.8,0-4.5-2.4L0.3-61
		c-0.1-0.4,0.2-0.8,0.7-1l1.4-0.4l1.2,4.7L8.8-59l0.5,2.1l-5.2,1.4l0.3,1.1C4.8-53.3,5.3-53.1,6.3-53.4z M52.6-92.6
		c0-8.1-4.9-14.1-11.5-14.1s-11.4,5.9-11.4,14s4.9,14.1,11.5,14.1S52.6-84.5,52.6-92.6z M48.8-92.7c0,5.3-2.9,10.7-7.7,10.6
		c-5,0-7.6-5.4-7.6-10.5c0-5.3,2.9-10.7,7.7-10.6C46.1-103.3,48.8-97.8,48.8-92.7z M94-92.5c0-8.1-4.9-14.1-11.5-14.1
		s-11.4,5.9-11.4,14S76-78.5,82.6-78.5C89.2-78.6,94-84.4,94-92.5z M90.2-92.7c0,5.3-2.9,10.7-7.7,10.6c-5,0-7.6-5.4-7.6-10.5
		c0-5.3,2.9-10.7,7.7-10.6C87.6-103.2,90.2-97.8,90.2-92.7z M-50.4-79.3c-1.5,0-2.7-1.2-2.7-2.7v-12.7c0-3.6-2.6-6.2-5.6-6.2
		s-5.6,2.7-5.6,6.2V-82c0,1.5-1.2,2.7-2.7,2.7c-1.6,0-2.8-1.2-2.8-2.7v-12.7c0-6.3,4.9-11.5,11.1-11.5s11,5.3,11,11.5V-82
		C-47.6-80.5-48.8-79.3-50.4-79.3z M9.8-92.8c0-7.9-5.8-14.3-13.3-14.3H-16c-5.7,0-9.6,1.5-12.1,4.3c-0.4,0.4-0.7,0.8-1,1.3
		c-0.9,1.3-1.7,2.3-2.5,3.5h-6.6v-5.4c0-1.5-1.2-2.7-2.7-2.7s-2.7,1.2-2.7,2.7v21.2c0,1.5,1.2,2.7,2.7,2.7H-29
		c5.1,0,9.3-4.2,9.3-9.3c0-3.8-2.3-7.1-5.7-8.5l1.1-1.4c0.5-0.6,1-1.2,1.7-1.6c0.4-0.2,1-0.6,1.6-0.8c1.5-0.6,3.5-1,5.1-1h12.5
		c4.1,0,7.5,4.2,7.5,9.3c0,5.1-3.4,8.7-7.5,8.7s-7.5-3.7-7.5-8.7c0-2.9,1.2-5.3,3-6.8l0.6-0.5h-7.4c-1.2,2.1-1.9,4.6-1.9,7.3
		c0,7.9,5.8,14.3,13.3,14.3C4-78.5,9.8-84.9,9.8-92.8z M-25.3-88.7c0,2.1-1.7,3.8-3.8,3.8h-9.2v-7.6h9.2
		C-27-92.5-25.3-90.8-25.3-88.7z M29.1-102.5H15.3c0.3,1,1,1.7,2.1,2.4c0,0,5.6,3.7,7.5,4.9c3.5,2.1,6.1,6.7,3.9,11.9
		c-1.3,3-4.3,4.8-8.2,4.8c-5.3,0-9-3.5-9.2-8.8c0-1,0.8-1.9,1.9-1.9c1,0,1.9,0.9,1.9,1.9c0.1,4.9,4.2,5.3,5.4,5.3
		c3.3,0,5.4-2.1,5.4-5.5c0-2.2-1.7-3.7-3.1-4.6L15.4-97c-2.8-1.8-4-4.2-4.1-8.1v-0.8h17.8c1,0,1.8,0.8,1.8,1.8
		C30.9-103.3,30.1-102.5,29.1-102.5z M-74.9-84.8c1.5,0,2.7,1.2,2.7,2.8c0,1.5-1.3,2.7-2.8,2.7h-16.3c-1.5,0-2.7-1.2-2.7-2.7v-21.2
		c0-1.6,1.3-2.7,2.8-2.7h16.3c1.5,0,2.7,1.2,2.7,2.7s-1.3,2.7-2.8,2.7h-13.6v5.1H-77c1.5,0,2.7,1.2,2.7,2.7s-1.3,2.7-2.8,2.7h-11.5
		v5.1h13.7V-84.8z M70.5-102.5H56.7c0.3,1,1,1.7,2.1,2.4c0,0,5.6,3.7,7.5,4.9c3.5,2.1,6.1,6.7,3.9,11.9c-1.3,3-4.3,4.8-8.2,4.8
		c-5.3,0-9-3.5-9.2-8.8c0-1,0.8-1.9,1.9-1.9c1,0,1.9,0.9,1.9,1.9c0.1,4.9,4.2,5.3,5.4,5.3c3.3,0,5.4-2.1,5.4-5.5
		c0-2.2-1.7-3.7-3.1-4.6L56.8-97c-2.8-1.8-4-4.2-4.1-8.1v-0.8h17.8c1,0,1.8,0.8,1.8,1.8C72.3-103.3,71.5-102.5,70.5-102.5z"/>
	<path id="_x2122__Legal_notice_2_" fill="#FFFFFF" d="M68.4-40.4v7.3H66c-0.1,0-0.1,0-0.1,0v0.1v0.5c0,0.1,0,0.1,0,0.1H66h5.7
		c0.1,0,0.1,0,0.1,0v-0.1V-33c0-0.1,0-0.1,0-0.1h-0.1h-2.4v-7.3c0-0.1,0-0.1,0-0.1s0,0-0.1,0h-0.6C68.5-40.5,68.5-40.5,68.4-40.4
		C68.4-40.5,68.4-40.5,68.4-40.4z M79.8-40.5L79.8-40.5h0.6c0.1,0,0.1,0,0.1,0v0.1v7.6c0,0.1-0.1,0.3-0.1,0.4
		c-0.1,0.1-0.2,0.1-0.4,0.1h-0.3c-0.2,0-0.3,0-0.3-0.1c-0.1-0.1-0.2-0.2-0.2-0.3s-2.4-6-2.5-6h-0.1c0,0.1-2.5,6-2.5,6
		c-0.1,0.2-0.2,0.3-0.2,0.3c-0.1,0.1-0.2,0.1-0.3,0.1h-0.3c-0.2,0-0.3,0-0.4-0.1s-0.1-0.2-0.1-0.4v-7.6c0-0.1,0-0.1,0-0.1h0.1h0.5
		c0.1,0,0.1,0,0.1,0v0.1v6.4l0,0c0,0,2.1-5,2.2-5.2s0.1-0.3,0.2-0.3c0.1-0.1,0.2-0.1,0.3-0.1h0.3c0.2,0,0.3,0,0.3,0.1
		c0.1,0.1,0.1,0.2,0.2,0.3c0.1,0.2,2.2,5.3,2.2,5.3h0.1v-6.5C79.8-40.5,79.8-40.5,79.8-40.5z"/>
	<g id="Symbol_2_">
		<path fill="#008AAB" d="M-3.4,107.1c-46.4,0-84.1-37.6-84.1-84.1c0-32.7,18.7-61.1,46-75c9.9,9.3,23.3,15,37.9,15
			c14.7,0,28.1-5.7,38-15C61.9-38.2,80.6-9.8,80.6,23C80.6,69.4,43,107.1-3.4,107.1z"/>
		<path fill="#00BFD6" d="M-65.8,17.8c-3.9-0.6-8.9,0.3-13.8,2c0.2-3.6,0.7-7.1,1.4-10.5c1.9-0.6,3.9-1.2,6.1-1.7
			c20.1-5.3,19-29.8,18.2-41c5.5,4.7,11.8,8.7,18.5,11.7l0.4,1.6c0.7,2.9,1.1,5.9,1.3,8.9c-6.5,7.4-12.8,17.5-14.3,33
			c-0.2,1.9-0.3,3.8-0.6,6.3c-1.6,2.1-3.3,4.2-5.1,6.4c-1.5,1.8-3,3.6-4.3,5.5c1.7-8.2,2.2-16-1.3-18.8c-1.4-1.1-2.6-0.6-1.2,4.1
			c1.7,6-3,10.6-8.4,8.5c-7.3-2.8-4.3-11.6,0.4-12.5C-64.6,20.4-63.4,18.1-65.8,17.8z"/>
		<path fill="#77BC1F" d="M-3.6-18.3c-21.2,0-40.3-8.9-53.9-23.1c4.9-4.1,10.2-7.6,15.9-10.5c10,9.2,23.4,14.9,38,14.9
			c14.7,0,28.1-5.7,38-15c5.7,2.9,11.1,6.4,15.9,10.5C36.9-27.3,17.7-18.3-3.6-18.3z"/>
		<path fill="#D1D3D3" d="M-60-39.2c1.4,1.5,2.9,3,4.5,4.4c-16.4,14.4-26.7,35.5-26.7,59c0,35.7,23.8,65.9,56.4,75.5
			c1.8,3.3,11.1,5.7,22.4,5.7S17.2,103,19,99.7C51.6,90.1,75.4,60,75.4,24.2C75.4,0.6,65-20.5,48.5-35c1.5-1.4,3-2.9,4.4-4.4
			C70-23.9,80.6-1.7,80.6,23c0,46.4-37.6,84.1-84.1,84.1c-46.4,0-84.1-37.6-84.1-84.1C-87.5-1.6-76.9-23.8-60-39.2z"/>
		<path fill="#F7A800" d="M-26.1-18.1l0.3,1.1c0.6,2.2,2.4,4.2,4.6,6.6c2.5,2.8,5.4,6,5.6,9c0.2,3.1-4.1,9.9-6.6,14
			c-1.2,1.9-2.2,3.5-2.8,4.7c-6,11.7-8.7,22.7-8.8,35c-0.6-0.9-1.4-2.1-1.9-2.5c-1.3-1.2-2.9-0.7-1.1,3.9c2.2,5.8-1.6,10.9-7.2,9.6
			c-7.6-1.7-5.8-10.9-1.3-12.4c3.8-1.3,4.5-3.6,2.2-3.8c-9.1-0.7-16.3,15.4-17.3,27.4c-2.6-2.9-5-6.1-7.2-9.4
			c2.2-10.1,8.3-20.9,15.8-29.7c21.3-25,22-44.1,19.2-56C-30.8-19.8-28.2-18.8-26.1-18.1z"/>
		<path id="XMLID_6_" fill="#BD83CA" d="M65.2,38.1c3.2,1.8,5,7.4,0.1,10.9c-5.2,3.7-10.1-2.9-9.7-6.1c1.5-1,3.1-2.7,3.8-5.3
			c1.2-4.2-0.4-8.4-4.1-11c0.4,0,0.8-0.1,1.3-0.1c4.1,0,9.4,2,14.5,5.4l1.1,0.7c-0.2,1.9-0.5,3.7-0.8,5.5c-4.7-4.5-8.2-5.3-9.4-3.7
			C61.6,35.1,61.8,36.1,65.2,38.1z"/>
		<path fill="#00BFD6" d="M47-33.6c-1.2,11.9-2,39.9,14,47.1c4.8,2.1,8.5,4.2,11.6,6.3c0.1,1.5,0.1,3,0.1,4.6c0,1.9-0.1,3.8-0.2,5.6
			c-6.1-4.1-13.5-6.9-19-5.5c-1.5,0.4-3.5,1.8-0.3,3.7c7.2,4.3,4,13.9-2.4,13.5c-5.7-0.4-8.1-7-4.8-11.3c1-1.4-0.4-2.1-2.1-1.9
			c-1.8-1.7-6-6.9-7.4-9.1C39.2,1,26.7-11,26.7-11c0-1.6,0.3-7.3,1-10.5C34.7-24.6,41.2-28.7,47-33.6z"/>
		<path id="XMLID_5_" fill="#BD83CA" d="M-79.5,30c1.2-0.7,2.5-1.4,3.8-2.1c0,3.4,1.8,6.2,5,7.7c-2.7,0.8-5.2,2.4-7.4,4.5
			C-78.8,36.8-79.3,33.4-79.5,30z"/>
		<path id="XMLID_4_" fill="#BD83CA" d="M-72,51.7c-6-3-3.6-11.5,1.6-12.8c2-0.5,3.4-1.4,4-2.2h0.1c2.5,0,4.8-1,6.4-2.8
			c0.1-0.2,0.5-0.2,0.5,0.2c-0.1,1.2-0.5,3.3-0.9,5.3c-0.3-0.6-0.6-0.9-1-0.9c-0.7,0-1.5,0.7-0.9,4.8C-61.7,47-64.9,55.2-72,51.7z"
			/>
		<path fill="#EA7200" d="M53.7,74.7c-1.3-12.3-8.3-31.2-17.1-33.5c-3-0.8-3.3,1.3,1.4,4.4c4.4,3,3.4,11.6-2.8,12.2
			c-6.6,0.7-9.9-5.8-6.6-10.7c2.7-4,1.3-5.1,0-4.9c-0.6,0.1-1.5,0.7-2.2,1.2c-1.1-8.9-3.7-17.3-8.2-26.2c-0.6-1.2-1.6-2.8-2.8-4.7
			c-2.5-4.1-6.8-10.9-6.6-14c0.2-3,3.1-6.2,5.6-9c2.2-2.4,4.1-4.5,4.6-6.7l0.3-1.3c2.1-0.6,4.1-1.4,6.2-2.2
			c-0.6,3.9-1.1,10.3-1.1,11.2c0.6,9.4,2.7,21.7,10.2,31.1c2.3,2.9,6.7,7.8,8.2,9.4c-0.8,1.9-0.9,5.1,0.2,7.6
			c1.4,3.1,4.3,5.1,7.7,5.4c0.2,0,0.4,0,0.7,0c0.6,0,1.2-0.1,1.8-0.2c3.4,6,6.3,13.1,7.8,21.3C58.7,68.5,56.4,71.7,53.7,74.7z"/>
		<path fill="#D1D3D3" d="M6.1,83.6c-0.2,1.5,0.3,3.8,1.1,3.9c1.9,0.1,4.1-0.1,5.7-0.9c5.5-2.7,6-9.8,5.8-16.4
			c-1.4,1.1-3,2.1-4.7,2.9c0.2,3.4,0,6.8-2,8.9C10.7,83.5,8.3,84,6.1,83.6z M-12.7,88.5c1.8-0.2,1.8-4.6,1.8-6.9
			c0-2.2-0.2-4-0.5-5.4c2.5,0.5,5.2,0.8,8,0.8s5.5-0.3,8-0.8c-0.3,1.3-0.5,3.1-0.5,5.4S4,88.3,5.9,88.5c2,0.2,7.5,0.4,7.5,1.4
			c0,1.5-7.1,2.6-16.8,2.6s-16.8-1.1-16.8-2.6C-20.2,89-14.8,88.8-12.7,88.5z M-20.8,73.1c-0.2,3.4,0,6.8,2,8.9
			c1.3,1.5,3.7,1.9,5.8,1.6c0.2,1.5-0.3,3.8-1.1,3.9c-1.9,0.1-4.1-0.1-5.7-0.9c-5.5-2.7-6-9.8-5.8-16.4
			C-24.1,71.3-22.5,72.3-20.8,73.1z M-24.8,95.9c-0.1,0.3-0.3,0.6-0.3,0.9c0.1,3.7,9.6,6.6,21.4,6.6s21.8-2.9,21.9-6.6
			c0-0.3-0.2-0.6-0.3-0.9l-2.3-6c0,3.1-7.4,4.5-19,4.5c-11.7,0-19-1.4-19-4.5L-24.8,95.9z M6.5-1.5c0.4-6.4,9.3-12.1,10.3-16.1
			c-6.5,1.8-13.3,2.7-20.3,2.7c-6.9,0-13.6-0.9-20-2.6c1.1,4,9.9,9.7,10.2,16c0.3,5.2-7.6,15.8-9.7,19.8
			c-6.6,13.2-9.1,25.2-8.4,38.9c0.5,10.1,12.6,18.3,28,18.3c15.5,0,27.6-8.2,28-18.3c0.6-13.7-1.8-25.7-8.4-38.9
			C14.1,14.2,6.2,3.7,6.5-1.5z M2.9,63.7c0,3.2-2.9,5.8-6.4,5.8s-6.4-2.6-6.4-5.8s2.9-5.8,6.4-5.8S2.9,60.5,2.9,63.7z M-3.5,67.5
			c-2.3,0-4.2-1.7-4.2-3.8c0-2.1,1.9-3.8,4.2-3.8s4.2,1.7,4.2,3.8C0.7,65.8-1.2,67.5-3.5,67.5z"/>
	</g>
</symbol>
<use xlink:href="#Portrait_Logo_Light_Background_7C_2"  width="188" height="214.2" id="Portrait_Logo_Light_Background_7C" x="-94" y="-107.1" transform="matrix(3.9293 0 0 -3.9293 595.1951 421.1405)" overflow="visible"/>
</svg>
