<svg width="24" height="24" viewBox="0 0 24 24" fill="none" xmlns="http://www.w3.org/2000/svg">
<circle cx="12" cy="12" r="10" fill="white"/>
<path fill-rule="evenodd" clip-rule="evenodd" d="M12 21.0012C7.03675 21.0012 2.99878 16.9634 2.99878 12C2.99878 7.03675 7.03675 2.99878 12 2.99878C16.9634 2.99878 21.0012 7.03675 21.0012 12C21.0012 16.9634 16.9634 21.0012 12 21.0012ZM12 19.4998C11.3209 19.4998 10.6626 19.409 10.0366 19.2391L8.84954 17.0499C8.70554 16.7843 8.44921 16.5981 8.15214 16.5432L5.71851 16.0936C5.00602 15.004 4.56916 13.7186 4.50773 12.3373L6.20503 10.5507C6.4131 10.3316 6.51101 10.0303 6.47141 9.7308L6.15133 7.31036C6.9882 6.26875 8.09706 5.45451 9.36909 4.97646L11.5689 6.02727C11.8415 6.15749 12.1584 6.15749 12.431 6.02727L14.6309 4.97644C15.9029 5.45446 17.0117 6.26867 17.8486 7.31024L17.5285 9.7308C17.4889 10.0303 17.5868 10.3316 17.7949 10.5507L19.4923 12.3373C19.4308 13.7186 18.994 15.004 18.2815 16.0935L15.8478 16.5432C15.5507 16.5981 15.2944 16.7843 15.1504 17.0499L13.9634 19.2391C13.3374 19.409 12.6791 19.4998 12 19.4998ZM9.19922 10.6808L11.4119 9.07189C11.7625 8.81696 12.2375 8.81696 12.5881 9.07189L14.8008 10.6808C15.151 10.9354 15.2975 11.3865 15.1638 11.7984L14.3183 14.4026C14.1845 14.8147 13.8005 15.0938 13.3672 15.0938H10.6328C10.1995 15.0938 9.81546 14.8147 9.68166 14.4026L8.83618 11.7984C8.70248 11.3865 8.84902 10.9354 9.19922 10.6808Z" fill="#3C3C3C"/>
</svg>
