<svg width="24" height="24" viewBox="0 0 24 24" fill="none" xmlns="http://www.w3.org/2000/svg">
<mask id="mask0" mask-type="alpha" maskUnits="userSpaceOnUse" x="0" y="0" width="24" height="24">
<rect width="24" height="24" fill="#C4C4C4"/>
</mask>
<g mask="url(#mask0)">
<path d="M9.06372 12.5733L14.9322 3.93837C15.3336 3.34773 14.9105 2.5487 14.1964 2.5487L2.45948 2.5487C1.74535 2.5487 1.32229 3.34773 1.7237 3.93837L7.59216 12.5733C7.94517 13.0927 8.71071 13.0927 9.06372 12.5733Z" fill="#CB333B"/>
<path d="M15.1409 9.42675L9.27241 18.0616C8.871 18.6523 9.29406 19.4513 10.0082 19.4513L21.7451 19.4513C22.4592 19.4513 22.8823 18.6523 22.4809 18.0616L16.6124 9.42675C16.2594 8.90732 15.4939 8.90732 15.1409 9.42675Z" fill="#0A9504"/>
</g>
</svg>
